<?xml version="1.0" encoding="UTF-8"?>
<!DOCTYPE svg PUBLIC "-//W3C//DTD SVG 1.1//EN" "http://www.w3.org/Graphics/SVG/1.1/DTD/svg11.dtd">
<svg xmlns="http://www.w3.org/2000/svg" version="1.1" width="128px" height="128px" style="shape-rendering:geometricPrecision; text-rendering:geometricPrecision; image-rendering:optimizeQuality; fill-rule:evenodd; clip-rule:evenodd" xmlns:xlink="http://www.w3.org/1999/xlink">
<g><path style="opacity:0.981" fill="#554278" d="M 100.5,53.5 C 99.1516,52.3994 97.6516,51.3994 96,50.5C 95.6012,50.7284 95.4346,51.0618 95.5,51.5C 94.4168,51.4606 93.4168,51.1272 92.5,50.5C 89.0162,53.1159 85.5162,53.1159 82,50.5C 78.2665,52.5633 74.4331,54.2299 70.5,55.5C 87.4902,56.3329 104.49,56.8329 121.5,57C 124.254,57.5985 126.254,59.0985 127.5,61.5C 127.5,78.5 127.5,95.5 127.5,112.5C 126.146,114.696 124.146,116.196 121.5,117C 82.8333,117.667 44.1667,117.667 5.5,117C 2.85408,116.196 0.854084,114.696 -0.5,112.5C -0.5,95.5 -0.5,78.5 -0.5,61.5C 0.745833,59.0985 2.74583,57.5985 5.5,57C 9.83333,56.6667 14.1667,56.3333 18.5,56C 10.6127,40.3307 13.2794,26.664 26.5,15C 44.879,5.3451 59.879,9.01176 71.5,26C 82.5973,26.0445 93.5973,26.7111 104.5,28C 107.885,31.7171 110.885,35.7171 113.5,40C 111.417,43.7571 108.917,47.2571 106,50.5C 104.512,52.16 102.679,53.16 100.5,53.5 Z M 31.5,36.5 C 37.0159,36.4734 38.3492,38.64 35.5,43C 30.1766,43.1802 28.8433,41.0136 31.5,36.5 Z"/></g>
<g><path style="opacity:1" fill="#f07193" d="M 97.5,31.5 C 100.073,33.9097 102.073,36.7431 103.5,40C 102.201,42.77 100.535,45.27 98.5,47.5C 96.5107,46.5186 94.5107,45.5186 92.5,44.5C 90.5952,45.065 88.9285,46.065 87.5,47.5C 83.5565,43.4159 79.8898,43.5825 76.5,48C 73.8333,48.3333 71.1667,48.6667 68.5,49C 62.2128,61.978 51.8794,67.3114 37.5,65C 19.5932,56.6118 14.7599,43.4452 23,25.5C 36.0185,11.554 49.6852,10.8874 64,23.5C 65.6258,25.9171 67.1258,28.4171 68.5,31C 78.1609,31.4998 87.8276,31.6665 97.5,31.5 Z M 31.5,36.5 C 28.8433,41.0136 30.1766,43.1802 35.5,43C 38.3492,38.64 37.0159,36.4734 31.5,36.5 Z"/></g>
<g><path style="opacity:1" fill="#ea625b" d="M 97.5,31.5 C 98.8734,31.3433 100.207,31.51 101.5,32C 103.514,34.6775 105.514,37.3442 107.5,40C 105.514,42.6558 103.514,45.3225 101.5,48C 100.251,48.7401 99.2506,48.5735 98.5,47.5C 100.535,45.27 102.201,42.77 103.5,40C 102.073,36.7431 100.073,33.9097 97.5,31.5 Z"/></g>
<g><path style="opacity:1" fill="#5f4678" d="M 30.5,31.5 C 39.8741,31.3565 43.3741,35.6898 41,44.5C 35.5135,50.0804 30.5135,49.747 26,43.5C 24.4742,38.2389 25.9742,34.2389 30.5,31.5 Z M 31.5,36.5 C 28.8433,41.0136 30.1766,43.1802 35.5,43C 38.3492,38.64 37.0159,36.4734 31.5,36.5 Z"/></g>
<g><path style="opacity:1" fill="#613f77" d="M 67.5,35.5 C 77.8387,35.3335 88.172,35.5002 98.5,36C 99.8333,37.3333 99.8333,38.6667 98.5,40C 88.1667,40.6667 77.8333,40.6667 67.5,40C 66.2721,38.5098 66.2721,37.0098 67.5,35.5 Z"/></g>
<g><path style="opacity:0.09" fill="#d2b655" d="M 100.5,53.5 C 98.4471,53.5979 96.7804,52.9313 95.5,51.5C 95.4346,51.0618 95.6012,50.7284 96,50.5C 97.6516,51.3994 99.1516,52.3994 100.5,53.5 Z"/></g>
<g><path style="opacity:1" fill="#6995ef" d="M 5.5,61.5 C 11.8421,61.3338 18.1754,61.5005 24.5,62C 33.2815,69.5439 43.2815,71.5439 54.5,68C 58.1649,66.503 61.4983,64.503 64.5,62C 83.5,61.3333 102.5,61.3333 121.5,62C 122,62.5 122.5,63 123,63.5C 123.667,78.8333 123.667,94.1667 123,109.5C 122.626,110.416 122.126,111.25 121.5,112C 82.8333,112.667 44.1667,112.667 5.5,112C 4.87424,111.25 4.37424,110.416 4,109.5C 3.33333,94.1667 3.33333,78.8333 4,63.5C 4.71719,62.9558 5.21719,62.2891 5.5,61.5 Z"/></g>
<g><path style="opacity:1" fill="#4d3d7a" d="M 19.5,78.5 C 20.5,78.5 21.5,78.5 22.5,78.5C 22.2011,80.604 22.5344,82.604 23.5,84.5C 25.9273,81.7097 27.9273,81.8763 29.5,85C 28.0033,86.6621 26.3366,88.1621 24.5,89.5C 26.0863,91.1727 26.7529,93.1727 26.5,95.5C 24.0712,95.415 22.0712,94.415 20.5,92.5C 15.0749,96.7389 13.7416,95.7389 16.5,89.5C 14.9029,88.2092 13.5696,86.7092 12.5,85C 13.7087,81.8987 15.3754,81.732 17.5,84.5C 18.2945,82.5049 18.9612,80.5049 19.5,78.5 Z"/></g>
<g><path style="opacity:1" fill="#4d3d7a" d="M 40.5,78.5 C 41.8221,78.33 42.9887,78.6634 44,79.5C 44.3333,81.1667 44.6667,82.8333 45,84.5C 48.4804,81.4119 50.147,82.0786 50,86.5C 46.0337,87.9204 45.5337,90.087 48.5,93C 48.3865,94.2798 47.7199,95.1131 46.5,95.5C 45.1667,94.5 43.8333,93.5 42.5,92.5C 41.1255,93.7113 39.6255,94.7113 38,95.5C 36.7202,95.3865 35.8869,94.7199 35.5,93.5C 36.5,92.1667 37.5,90.8333 38.5,89.5C 36.6634,88.1621 34.9967,86.6621 33.5,85C 35.0727,81.8763 37.0727,81.7097 39.5,84.5C 40.4656,82.604 40.7989,80.604 40.5,78.5 Z"/></g>
<g><path style="opacity:1" fill="#4c3c78" d="M 62.5,78.5 C 63.4959,78.4142 64.3292,78.7476 65,79.5C 65.2022,81.2556 65.7022,82.9223 66.5,84.5C 67.8498,83.0499 69.5165,82.3832 71.5,82.5C 71.8804,85.7916 70.5471,88.1249 67.5,89.5C 70.2584,95.7389 68.9251,96.7389 63.5,92.5C 61.9288,94.415 59.9288,95.415 57.5,95.5C 57.2471,93.1727 57.9137,91.1727 59.5,89.5C 58.6533,88.1552 57.4866,87.1552 56,86.5C 55.51,85.2068 55.3433,83.8734 55.5,82.5C 57.4835,82.3832 59.1502,83.0499 60.5,84.5C 61.2945,82.5049 61.9612,80.5049 62.5,78.5 Z"/></g>
<g><path style="opacity:1" fill="#4d3d7a" d="M 83.5,78.5 C 84.5,78.5 85.5,78.5 86.5,78.5C 86.2011,80.604 86.5344,82.604 87.5,84.5C 89.9273,81.7097 91.9273,81.8763 93.5,85C 92.0033,86.6621 90.3366,88.1621 88.5,89.5C 90.0863,91.1727 90.7529,93.1727 90.5,95.5C 88.0712,95.415 86.0712,94.415 84.5,92.5C 79.0749,96.7389 77.7416,95.7389 80.5,89.5C 78.9029,88.2092 77.5696,86.7092 76.5,85C 77.7087,81.8987 79.3754,81.732 81.5,84.5C 82.2945,82.5049 82.9612,80.5049 83.5,78.5 Z"/></g>
<g><path style="opacity:1" fill="#4d3e7b" d="M 104.5,78.5 C 105.822,78.33 106.989,78.6634 108,79.5C 108.333,81.1667 108.667,82.8333 109,84.5C 112.48,81.4119 114.147,82.0786 114,86.5C 110.034,87.9204 109.534,90.087 112.5,93C 112.387,94.2798 111.72,95.1131 110.5,95.5C 109.167,94.5 107.833,93.5 106.5,92.5C 105.126,93.7113 103.626,94.7113 102,95.5C 100.72,95.3865 99.8869,94.7199 99.5,93.5C 100.5,92.1667 101.5,90.8333 102.5,89.5C 100.663,88.1621 98.9967,86.6621 97.5,85C 99.0727,81.8763 101.073,81.7097 103.5,84.5C 104.466,82.604 104.799,80.604 104.5,78.5 Z"/></g>
</svg>
